<?xml version="1.0" standalone="no"?><!DOCTYPE svg PUBLIC "-//W3C//DTD SVG 1.1//EN" "http://www.w3.org/Graphics/SVG/1.1/DTD/svg11.dtd"><svg t="1728072862128" class="icon" viewBox="0 0 1024 1024" version="1.1" xmlns="http://www.w3.org/2000/svg" p-id="4134" xmlns:xlink="http://www.w3.org/1999/xlink" width="200" height="200"><path d="M309.312 433.408l-28.416-12.864-13.632 28.032a396.032 396.032 0 0 0-26.24 70.464c-44.288 165.504 23.744 330.432 157.632 366.272 133.824 35.84 275.2-72.96 319.552-238.4a394.24 394.24 0 0 0 13.12-83.2l1.536-32-32-1.536c-66.688-3.2-142.336-15.424-219.456-36.032a1115.2 1115.2 0 0 1-172.16-60.736z m3.2 71.872l0.256-0.576 0.256 0.128c47.04 19.52 98.304 36.864 151.872 51.2l2.432 0.64c67.52 17.856 134.144 29.696 195.584 35.072l1.472 0.128-0.192 1.024c-1.856 12.48-4.48 24.96-7.744 37.44-36.032 134.4-145.664 218.752-241.28 193.152-95.488-25.6-148.288-153.472-112.256-287.872a337.92 337.92 0 0 1 9.6-30.336z" fill="#3F454B" p-id="4135"></path><path d="M437.888 506.88a32 32 0 1 1 52.736 36.288c-18.816 27.328-25.088 46.72-22.4 56.896l0.256 0.896c1.664 6.208 2.752 7.04 8.576 7.04h0.64a32 32 0 1 1 0 64c-36.032 0-62.08-20.48-71.36-55.68-8.512-32.128 3.2-68.288 31.552-109.44zM347.648 686.464a32 32 0 0 1 44.544-5.376l0.448 0.32c28.16 22.4 59.52 26.944 98.432 13.312a32 32 0 1 1 21.184 60.416c-59.136 20.736-113.664 12.928-159.552-23.68a32 32 0 0 1-5.12-44.992z" fill="#397AFF" p-id="4136"></path><path d="M442.432 111.552c-51.84 19.712-89.344 56.768-102.144 104.832-13.312 49.92 3.072 90.688 44.352 120.064 29.632 21.056 69.44 35.968 135.232 53.76l2.048 0.64c67.968 18.304 114.752 26.624 154.88 24.832 26.368-1.28 48.896-7.168 67.456-18.944 21.184-13.44 35.776-33.92 42.752-60.16 12.8-48-1.216-98.88-36.288-141.952-33.28-40.96-83.648-72.512-141.696-88.128-58.048-15.68-117.376-13.632-166.592 5.056z m149.952 56.768c91.008 24.512 148.032 94.592 132.8 151.808a35.456 35.456 0 0 1-15.232 22.592c-8.064 5.12-20.032 8.256-36.096 8.96-31.232 1.472-72.576-5.824-133.44-22.208l-1.92-0.448c-59.84-16.192-94.976-29.248-116.736-44.8-20.224-14.336-25.792-28.16-19.584-51.328 15.168-57.152 99.264-89.088 190.208-64.64z" fill="#3F454B" p-id="4137"></path><path d="M376.064 183.488l-7.04 63.616c-70.464-7.68-132.16-6.592-176.832 2.88-20.8 4.48-37.12 10.56-48.256 17.664-8.768 5.696-13.248 11.2-14.72 16.576-2.112 7.808 1.344 19.456 12.8 34.816 13.952 18.56 37.44 39.168 68.928 59.968 67.072 44.224 164.16 85.504 272.192 114.432 107.968 28.928 212.736 41.728 292.928 36.992l2.432-0.192c36.48-2.368 66.304-8.32 87.168-17.28 17.664-7.616 26.496-15.936 28.544-23.744 3.008-11.136-5.248-29.504-28.48-52.672-26.688-26.624-68.928-54.912-122.24-81.408l-1.6-0.768 28.416-57.408c59.776 29.568 108.16 61.888 140.608 94.272 17.6 17.536 30.656 35.2 38.656 53.056 9.28 20.608 11.84 41.472 6.464 61.44-7.872 29.44-31.04 51.392-65.152 66.048-28.928 12.416-66.56 19.84-110.976 22.528-87.616 5.248-199.04-8.448-313.344-39.04-114.24-30.656-217.6-74.56-290.88-122.88-37.12-24.512-65.984-49.792-84.864-75.008-22.208-29.696-31.36-60.288-23.424-89.728 5.888-22.016 20.544-40.064 41.92-53.76 18.368-11.84 41.728-20.544 69.568-26.496 51.648-10.944 119.04-12.288 194.88-4.096l2.304 0.192z" fill="#3F454B" p-id="4138"></path></svg>