<?xml version="1.0" standalone="no"?><!DOCTYPE svg PUBLIC "-//W3C//DTD SVG 1.1//EN" "http://www.w3.org/Graphics/SVG/1.1/DTD/svg11.dtd"><svg t="1728072675412" class="icon" viewBox="0 0 1024 1024" version="1.1" xmlns="http://www.w3.org/2000/svg" p-id="1715" xmlns:xlink="http://www.w3.org/1999/xlink" width="200" height="200"><path d="M608 614.4c-38.4 51.2-153.6 51.2-185.6 0C409.6 601.6 384 601.6 377.6 608 364.8 614.4 364.8 640 371.2 652.8c25.6 32 83.2 64 140.8 64 57.6 0 102.4-19.2 140.8-64 6.4-12.8 6.4-25.6-6.4-38.4C640 601.6 614.4 601.6 608 614.4z" fill="#272635" p-id="1716"></path><path d="M876.8 409.6C832 249.6 684.8 134.4 512 134.4S192 249.6 147.2 409.6C102.4 422.4 64 460.8 64 512s38.4 89.6 83.2 102.4c44.8 160 192 281.6 364.8 281.6s320-115.2 364.8-281.6C921.6 601.6 960 563.2 960 512S921.6 422.4 876.8 409.6zM864 550.4l-38.4-6.4L819.2 576c-32 147.2-160 256-307.2 256s-281.6-108.8-307.2-256L198.4 544l-32 0c0 0-6.4 0-6.4 0C147.2 550.4 128 531.2 128 512c0-19.2 19.2-38.4 32-38.4l38.4 6.4L204.8 448c19.2-96 76.8-172.8 160-211.2C384 294.4 428.8 390.4 544 390.4c12.8 0 32-12.8 32-25.6 0 0 6.4-44.8 57.6-64 19.2-6.4 25.6-25.6 19.2-38.4C640 243.2 627.2 236.8 608 243.2 556.8 262.4 531.2 300.8 518.4 326.4 460.8 313.6 435.2 249.6 422.4 211.2 448 204.8 480 198.4 512 198.4c147.2 0 281.6 108.8 307.2 256l6.4 25.6 38.4-6.4C883.2 473.6 896 492.8 896 512 896 531.2 876.8 550.4 864 550.4z" fill="#272635" p-id="1717"></path><path d="M377.6 480m-38.4 0a0.6 0.6 0 1 0 76.8 0 0.6 0.6 0 1 0-76.8 0Z" fill="#272635" p-id="1718"></path><path d="M646.4 480m-38.4 0a0.6 0.6 0 1 0 76.8 0 0.6 0.6 0 1 0-76.8 0Z" fill="#272635" p-id="1719"></path></svg>